<?xml version="1.0" encoding="UTF-8" standalone="no"?>
<!-- Created with Inkscape (http://www.inkscape.org/) -->

<svg
   width="58"
   height="58"
   viewBox="0 0 15.345833 15.345833"
   version="1.1"
   id="svg27273"
   inkscape:version="1.2.2 (b0a8486541, 2022-12-01)"
   sodipodi:docname="icon_user_online.svg"
   xmlns:inkscape="http://www.inkscape.org/namespaces/inkscape"
   xmlns:sodipodi="http://sodipodi.sourceforge.net/DTD/sodipodi-0.dtd"
   xmlns="http://www.w3.org/2000/svg"
   xmlns:svg="http://www.w3.org/2000/svg">
  <sodipodi:namedview
     id="namedview27275"
     pagecolor="#ffffff"
     bordercolor="#000000"
     borderopacity="0.25"
     inkscape:showpageshadow="2"
     inkscape:pageopacity="0.0"
     inkscape:pagecheckerboard="true"
     inkscape:deskcolor="#d1d1d1"
     inkscape:document-units="mm"
     showgrid="false"
     inkscape:zoom="8.7786791"
     inkscape:cx="60.544416"
     inkscape:cy="28.079395"
     inkscape:window-width="2320"
     inkscape:window-height="814"
     inkscape:window-x="2040"
     inkscape:window-y="146"
     inkscape:window-maximized="1"
     inkscape:current-layer="layer1">
    <sodipodi:guide
       position="0,15.345833"
       orientation="0,58"
       id="guide30767"
       inkscape:locked="false" />
    <sodipodi:guide
       position="15.345833,15.345833"
       orientation="58,0"
       id="guide30769"
       inkscape:locked="false" />
    <sodipodi:guide
       position="15.345833,0"
       orientation="0,-58"
       id="guide30771"
       inkscape:locked="false" />
    <sodipodi:guide
       position="0,0"
       orientation="-58,0"
       id="guide30773"
       inkscape:locked="false" />
  </sodipodi:namedview>
  <defs
     id="defs27270">
    <clipPath
       clipPathUnits="userSpaceOnUse"
       id="clipPath31694">
      <rect
         style="fill:#c49fac;fill-opacity:1;stroke-width:0.538472"
         id="rect31696"
         width="15.345834"
         height="15.345834"
         x="0"
         y="0" />
    </clipPath>
  </defs>
  <g
     inkscape:label="Layer 1"
     inkscape:groupmode="layer"
     id="layer1">
    <path
       style="fill:#ffffff;stroke-width:0.264583;fill-opacity:0.50458562"
       d="M -1.8491673,-2.1852747 16.885795,16.549688 V 14.549362 L 0.22227971,-2.1141533 Z"
       id="path30777"
       clip-path="url(#clipPath31694)" />
    <g
       aria-label="online"
       transform="rotate(45)"
       id="text30833"
       style="font-style:italic;font-weight:800;font-size:4.37599px;font-family:'EB Garamond';-inkscape-font-specification:'EB Garamond Ultra-Bold Italic';text-align:center;text-anchor:middle;fill:#ffffff;stroke-width:0.198909">
      <path
         d="m 5.5901031,-1.2593722 c 0.8358141,0 1.321549,-0.7920541 1.321549,-1.3259249 0,-0.4157191 -0.2800634,-0.6476465 -0.6870304,-0.6476465 -0.8358141,0 -1.321549,0.7920541 -1.321549,1.3259249 0,0.3938391 0.3281993,0.6476465 0.6870304,0.6476465 z m 0.08752,-0.1794156 c -0.083144,0 -0.1444076,-0.056888 -0.1444076,-0.1750396 0,-0.5251187 0.3807111,-1.4528286 0.6126386,-1.4528286 0.091896,0 0.1400316,0.056888 0.1400316,0.1706636 0,0.5294948 -0.3369512,1.4572046 -0.6082626,1.4572046 z"
         style="fill:#c49fac"
         id="path31611" />
      <path
         d="m 7.5067883,-1.2593722 c 0.1137758,0 0.2187995,-0.1400317 0.3194473,-0.3150712 0.1356557,-0.2363035 0.424471,-0.7220384 0.5207428,-0.8620701 0.1531597,-0.2231754 0.3019433,-0.4901108 0.4157191,-0.4901108 0.061264,0 0.06564,0.04376 0.035008,0.1269037 -0.1619117,0.441975 -0.3938391,0.857694 -0.5863827,1.295293 -0.048136,0.1093997 0.1006478,0.2450554 0.2275515,0.2450554 0.3063193,0 0.7132864,-0.2275515 0.9758458,-0.5426227 0.04376,-0.052512 0.06564,-0.1093998 0.06564,-0.1750396 0,-0.030632 -0.026256,-0.056888 -0.04376,-0.056888 -0.02188,0 -0.06564,0.04376 -0.1006478,0.078768 -0.061264,0.061264 -0.2494314,0.2056716 -0.3063193,0.2056716 -0.04376,0 -0.056888,-0.035008 -0.017504,-0.1269038 l 0.3150713,-0.7351663 c 0.1093997,-0.2538074 0.078768,-0.6213905 -0.2931914,-0.6213905 -0.3850871,0 -0.6695264,0.433223 -0.9627178,0.9627178 -0.02188,0.039384 -0.1050237,0.035008 -0.08752,-0.00875 l 0.2187995,-0.5382468 c 0.078768,-0.1969195 0.00438,-0.415719 -0.2363034,-0.415719 -0.2931913,0 -0.4944869,0.1137757 -0.6476465,0.2494314 -0.06564,0.056888 -0.1881676,0.2187995 -0.1837916,0.2844393 0.00438,0.052512 0.070016,0.052512 0.096272,0.02188 0.1269037,-0.1487837 0.3063193,-0.1444077 0.3588312,-0.1444077 0.056888,0 0.074392,0.035008 0.052512,0.091896 l -0.428847,1.0677416 c -0.091896,0.2275514 0.1881676,0.402591 0.2931913,0.402591 z"
         style="fill:#c49fac"
         id="path31613" />
      <path
         d="m 9.8873307,-1.2593722 c 0.3019433,0 0.9102063,-0.4901108 0.9102063,-0.7045344 0,-0.017504 -0.0088,-0.074392 -0.05689,-0.074392 -0.0088,0 -0.01313,0.00875 -0.0175,0.013128 -0.113776,0.1137757 -0.271312,0.2538074 -0.341327,0.2538074 -0.03501,0 -0.05251,-0.02188 -0.05251,-0.056888 0,-0.013128 0.0044,-0.030632 0.0088,-0.048136 l 0.778926,-2.2361308 c 0.03063,-0.083144 0.05251,-0.1619116 0.06564,-0.2056715 0.0088,-0.026256 -0.01313,-0.091896 -0.04814,-0.091896 -0.0175,0 -0.08314,0.017504 -0.1094,0.026256 -0.15316,0.052512 -0.490111,0.096272 -0.73079,0.1575357 -0.07002,0.017504 -0.08314,0.039384 -0.0919,0.078768 -0.0088,0.04376 -0.0044,0.06564 0.0919,0.078768 0.118151,0.017504 0.153159,0.08752 0.07877,0.3063193 l -0.7220388,2.148611 c -0.013128,0.039384 -0.02188,0.074392 -0.02188,0.1006478 0,0.1093998 0.1093997,0.2538074 0.2581834,0.2538074 z"
         style="fill:#c49fac"
         id="path31615" />
      <path
         d="m 12.145343,-3.517383 c 0.210047,0 0.385087,-0.1794156 0.385087,-0.3807111 0,-0.1356557 -0.08752,-0.2844393 -0.236303,-0.2844393 -0.223176,0 -0.39384,0.1925435 -0.39384,0.402591 0,0.1356557 0.105024,0.2625594 0.245056,0.2625594 z m -0.787678,2.2580108 c 0.332575,0 0.923334,-0.4857349 0.923334,-0.7001584 0,-0.035008 -0.02626,-0.070016 -0.06126,-0.070016 -0.0088,0 -0.01313,0.00875 -0.0175,0.013128 -0.113776,0.1137757 -0.380711,0.2931913 -0.437599,0.2931913 -0.01313,0 -0.02188,-0.013128 -0.02188,-0.030632 0,-0.013128 0,-0.035008 0.0088,-0.052512 l 0.481359,-1.1990213 c 0.04376,-0.1137757 -0.140032,-0.2625593 -0.280064,-0.2144235 -0.210047,0.074392 -0.822686,0.5076149 -0.822686,0.6301426 0,0.048136 0.03063,0.08752 0.118152,0.039384 0.0919,-0.052512 0.192544,-0.1225277 0.262559,-0.1225277 0.01313,0 0.02188,0.00875 0.0175,0.02188 -0.140031,0.3369513 -0.284439,0.6914064 -0.433223,1.0371096 -0.0175,0.039384 -0.02188,0.074392 -0.02188,0.1006478 0,0.1093998 0.135656,0.2538074 0.28444,0.2538074 z"
         style="fill:#c49fac"
         id="path31617" />
      <path
         d="m 12.946152,-1.2593722 c 0.113776,0 0.2188,-0.1400317 0.319447,-0.3150712 0.135656,-0.2363035 0.424471,-0.7220384 0.520743,-0.8620701 0.15316,-0.2231754 0.301943,-0.4901108 0.415719,-0.4901108 0.06126,0 0.06564,0.04376 0.03501,0.1269037 -0.161912,0.441975 -0.393839,0.857694 -0.586383,1.295293 -0.04814,0.1093997 0.100648,0.2450554 0.227552,0.2450554 0.306319,0 0.713286,-0.2275515 0.975846,-0.5426227 0.04376,-0.052512 0.06564,-0.1093998 0.06564,-0.1750396 0,-0.030632 -0.02626,-0.056888 -0.04376,-0.056888 -0.02188,0 -0.06564,0.04376 -0.100648,0.078768 -0.06126,0.061264 -0.249432,0.2056716 -0.306319,0.2056716 -0.04376,0 -0.05689,-0.035008 -0.0175,-0.1269038 l 0.315071,-0.7351663 c 0.1094,-0.2538074 0.07877,-0.6213905 -0.293191,-0.6213905 -0.385088,0 -0.669527,0.433223 -0.962718,0.9627178 -0.02188,0.039384 -0.105024,0.035008 -0.08752,-0.00875 l 0.218799,-0.5382468 c 0.07877,-0.1969195 0.0044,-0.415719 -0.236303,-0.415719 -0.293191,0 -0.494487,0.1137757 -0.647647,0.2494314 -0.06564,0.056888 -0.188167,0.2187995 -0.183791,0.2844393 0.0044,0.052512 0.07002,0.052512 0.09627,0.02188 0.126903,-0.1487837 0.306319,-0.1444077 0.358831,-0.1444077 0.05689,0 0.07439,0.035008 0.05251,0.091896 l -0.428847,1.0677416 c -0.0919,0.2275514 0.188167,0.402591 0.293191,0.402591 z"
         style="fill:#c49fac"
         id="path31619" />
      <path
         d="m 15.694275,-1.2549962 c 0.437599,0 0.722038,-0.3150713 0.888326,-0.6388945 0.01313,-0.017504 0.01313,-0.048136 0.01313,-0.06564 0,-0.026256 -0.0088,-0.048136 -0.03938,-0.048136 -0.02188,0 -0.04376,0.017504 -0.07439,0.052512 -0.140031,0.1444077 -0.266935,0.2275515 -0.420095,0.2275515 -0.240679,0 -0.358831,-0.1881676 -0.354455,-0.3938391 0.0044,-0.026256 0.0044,-0.052512 0.01313,-0.078768 0.0044,-0.02188 0.01313,-0.035008 0.03938,-0.039384 0.424471,-0.091896 1.03711,-0.2450555 1.03711,-0.6520225 0,-0.1794156 -0.148784,-0.3413272 -0.516367,-0.3413272 -0.577631,0 -1.185894,0.6739024 -1.185894,1.4265727 0,0.3150713 0.354456,0.5513747 0.599511,0.5513747 z m 0.09627,-1.1508853 c -0.0175,0.00438 -0.03501,0 -0.03063,-0.026256 0.05689,-0.3500792 0.253807,-0.6345185 0.450727,-0.6345185 0.08752,0 0.126904,0.083144 0.122528,0.1444077 -0.02626,0.3281992 -0.271312,0.4375989 -0.542623,0.5163668 z"
         style="fill:#c49fac"
         id="path31621" />
    </g>
  </g>
</svg>
