<?xml version="1.0" encoding="UTF-8" standalone="no"?>
<!-- Created with Inkscape (http://www.inkscape.org/) -->

<svg
   width="64"
   height="64"
   viewBox="0 0 16.933333 16.933333"
   version="1.1"
   id="svg5"
   inkscape:version="1.2.2 (b0a8486541, 2022-12-01)"
   sodipodi:docname="forum_read_subforum.svg"
   xml:space="preserve"
   xmlns:inkscape="http://www.inkscape.org/namespaces/inkscape"
   xmlns:sodipodi="http://sodipodi.sourceforge.net/DTD/sodipodi-0.dtd"
   xmlns="http://www.w3.org/2000/svg"
   xmlns:svg="http://www.w3.org/2000/svg"><sodipodi:namedview
     id="namedview7"
     pagecolor="#ffffff"
     bordercolor="#000000"
     borderopacity="0.25"
     inkscape:showpageshadow="2"
     inkscape:pageopacity="0"
     inkscape:pagecheckerboard="true"
     inkscape:deskcolor="#d1d1d1"
     inkscape:document-units="mm"
     showgrid="false"
     inkscape:zoom="6.2074635"
     inkscape:cx="55.819901"
     inkscape:cy="37.132719"
     inkscape:window-width="2320"
     inkscape:window-height="814"
     inkscape:window-x="2040"
     inkscape:window-y="146"
     inkscape:window-maximized="1"
     inkscape:current-layer="layer1" /><defs
     id="defs2" /><g
     inkscape:label="Layer 1"
     inkscape:groupmode="layer"
     id="layer1"><path
       id="path113"
       style="fill:#ffffff;stroke-width:0.264583;fill-opacity:1"
       d="m 6.5288006,2.3016681 a 6.3499999,6.3499999 0 0 0 -4.2271321,5.9799968 6.3499999,6.3499999 0 0 0 6.35,6.3500001 6.3499999,6.3499999 0 0 0 5.9799965,-4.227132 5.8208332,5.8208332 0 0 1 -3.334163,1.052132 A 5.8208332,5.8208332 0 0 1 5.4766685,5.6358315 5.8208332,5.8208332 0 0 1 6.5288006,2.3016681 Z" /><path
       id="rect1337"
       stroke-width="0"
       fill-rule="evenodd"
       fill="#ff0000"
       d="m 11.457693,2.6521755 v 1.3973088 h -1.397035 l -1.4e-5,1.4263054 h 1.397036 v 1.3970347 h 1.426305 V 5.4757897 h 1.397036 V 4.0494843 H 12.883985 V 2.6521755 l -1.426305,1.37e-5 z"
       style="fill:#ffffff;fill-opacity:1" /></g></svg>
