<?xml version="1.0" standalone="no"?>
<!DOCTYPE svg PUBLIC "-//W3C//DTD SVG 20010904//EN"
 "http://www.w3.org/TR/2001/REC-SVG-20010904/DTD/svg10.dtd">
<svg version="1.0" xmlns="http://www.w3.org/2000/svg"
 width="700.000000pt" height="700.000000pt" viewBox="0 0 700.000000 700.000000"
 preserveAspectRatio="xMidYMid meet">
<metadata>
Created by potrace 1.14, written by Peter Selinger 2001-2017
</metadata>
<g transform="translate(0.000000,700.000000) scale(0.100000,-0.100000)"
fill="#000000" stroke="none">
<path d="M2795 5711 c-117 -40 -275 -110 -337 -148 -21 -13 -40 -23 -44 -23
-16 0 -267 -175 -339 -237 -244 -207 -444 -460 -579 -731 -31 -61 -56 -114
-56 -118 0 -3 -7 -20 -15 -37 -28 -62 -54 -136 -83 -238 -63 -218 -86 -387
-86 -629 0 -135 8 -275 19 -331 3 -13 10 -52 15 -86 57 -349 239 -742 481
-1040 374 -459 949 -769 1539 -830 97 -10 374 -10 470 0 109 12 114 13 234 37
509 103 987 395 1319 806 156 194 301 456 381 693 l46 133 -90 -86 c-315 -299
-737 -502 -1130 -541 -36 -4 -76 -9 -90 -11 -34 -5 -274 -5 -335 1 -74 7 -195
25 -235 35 -19 5 -49 12 -67 15 -18 3 -44 10 -58 15 -14 5 -36 12 -48 14 -24
5 -99 31 -132 45 -11 5 -49 21 -85 36 -97 41 -223 111 -330 183 -52 35 -97 67
-100 71 -3 3 -27 24 -55 46 -156 126 -339 341 -444 525 -70 122 -166 343 -192
445 -28 108 -41 163 -43 180 -2 11 -6 38 -10 60 -4 22 -9 56 -12 75 -13 79
-13 397 1 495 61 445 250 835 556 1147 37 37 62 68 55 68 -6 0 -60 -18 -121
-39z"/>
</g>
</svg>
