<?xml version="1.0" encoding="UTF-8"?>
<svg id="Layer_1" data-name="Layer 1" xmlns="http://www.w3.org/2000/svg" viewBox="0 0 149 52">
  <defs>
    <style>
      .cls-1 {
        fill: #fff;
      }
    </style>
  </defs>
  <g>
    <path class="cls-1" d="m50.14,31.32c-.42,0-.8-.03-1.15-.1s-.61-.14-.81-.23l1.12-2.39c.64.19,1.19.22,1.65.08.46-.14.9-.57,1.33-1.29l.39-.71-2.51-13.32h3.15l1.36,9.9h.14l4.68-9.9h3.4l-7.66,14.66c-.55,1.05-1.24,1.87-2.07,2.45-.83.58-1.84.87-3.03.87Z"/>
    <path class="cls-1" d="m72.12,20.93l1.27-7.58h3.08l-2.18,13.09h-2.99l.39-2.33h-.14c-.41.73-.99,1.33-1.75,1.8-.76.47-1.63.7-2.61.7-1.28,0-2.26-.43-2.93-1.28s-.88-2.07-.61-3.64l1.4-8.33h3.08l-1.31,7.86c-.12.83,0,1.49.37,1.98.37.49.92.73,1.66.73.45,0,.91-.11,1.38-.33.46-.22.87-.55,1.21-.99.35-.44.57-.99.68-1.66Z"/>
    <path class="cls-1" d="m77.47,26.43l2.18-13.09h2.96l-.38,2.22h.16c.4-.74.95-1.33,1.64-1.75.7-.43,1.49-.64,2.36-.64s1.59.21,2.13.64c.54.43.88,1.01,1,1.75h.14c.4-.73.99-1.31,1.75-1.74.77-.43,1.63-.65,2.58-.65,1.19,0,2.11.38,2.74,1.14.64.76.83,1.87.59,3.33l-1.47,8.79h-3.08l1.4-8.31c.12-.81,0-1.41-.37-1.79-.37-.38-.87-.57-1.5-.57-.74,0-1.35.23-1.85.69-.49.46-.8,1.06-.91,1.81l-1.37,8.17h-3.03l1.42-8.44c.1-.68-.01-1.22-.35-1.62s-.83-.61-1.49-.61-1.27.25-1.82.75-.89,1.15-1.02,1.95l-1.33,7.96h-3.09Z"/>
    <path class="cls-1" d="m104.77,26.69c-1.31,0-2.4-.28-3.26-.83s-1.46-1.33-1.8-2.34c-.34-1.01-.4-2.19-.17-3.56.22-1.35.67-2.53,1.36-3.55s1.54-1.82,2.56-2.39,2.16-.86,3.41-.86c1.07,0,2.03.23,2.85.7.83.47,1.44,1.19,1.82,2.16s.45,2.23.2,3.75l-.15.95h-9.13v.04c-.2,1.23-.05,2.12.45,2.68.5.56,1.27.83,2.3.83.68,0,1.28-.14,1.81-.43s.95-.7,1.25-1.26l2.82.32c-.46,1.14-1.25,2.05-2.37,2.74-1.11.69-2.43,1.03-3.96,1.03Zm-1.94-8.04h6.13c.15-.89,0-1.63-.44-2.21-.44-.58-1.11-.87-2-.87-.59,0-1.15.15-1.66.44-.52.3-.96.68-1.31,1.15-.36.47-.59.96-.71,1.49Z"/>
  </g>
  <path class="cls-1" d="m51.07,37.23c-5.39,0-9.76-4.37-9.76-9.76,0-2.84,1.22-5.39,3.16-7.18-4.74,1.31-8.22,5.64-8.22,10.79,0,6.19,5.02,11.21,11.21,11.21,5.15,0,9.49-3.48,10.79-8.22-1.78,1.94-4.33,3.16-7.18,3.16Z"/>
</svg>