<?xml version="1.0" encoding="UTF-8" standalone="no"?>
<!-- Created with Inkscape (http://www.inkscape.org/) -->

<svg
   width="149"
   height="52"
   viewBox="0 0 39.422916 13.758333"
   version="1.1"
   id="svg5"
   inkscape:version="1.2.2 (b0a8486541, 2022-12-01)"
   sodipodi:docname="yume-logo.svg"
   xmlns:inkscape="http://www.inkscape.org/namespaces/inkscape"
   xmlns:sodipodi="http://sodipodi.sourceforge.net/DTD/sodipodi-0.dtd"
   xmlns="http://www.w3.org/2000/svg"
   xmlns:svg="http://www.w3.org/2000/svg">
  <sodipodi:namedview
     id="namedview7"
     pagecolor="#ffffff"
     bordercolor="#000000"
     borderopacity="0.25"
     inkscape:showpageshadow="2"
     inkscape:pageopacity="0.0"
     inkscape:pagecheckerboard="true"
     inkscape:deskcolor="#d1d1d1"
     inkscape:document-units="mm"
     showgrid="false"
     inkscape:lockguides="true"
     inkscape:zoom="8.7786791"
     inkscape:cx="78.3717"
     inkscape:cy="29.560256"
     inkscape:window-width="2320"
     inkscape:window-height="814"
     inkscape:window-x="2040"
     inkscape:window-y="146"
     inkscape:window-maximized="1"
     inkscape:current-layer="layer1" />
  <defs
     id="defs2" />
  <g
     inkscape:label="Layer 1"
     inkscape:groupmode="layer"
     id="layer1">
    <path
       id="text113"
       style="font-size:8.59472px;line-height:0;font-family:'XXII Daemon';-inkscape-font-specification:'XXII Daemon';text-align:center;text-anchor:middle;fill:#ffffff;stroke-width:0.390669"
       d="M 10.689787,1.9967773 A 4.8825469,4.8825469 0 0 0 5.8068809,6.8791667 4.8825469,4.8825469 0 0 0 10.689787,11.761556 4.8825469,4.8825469 0 0 0 15.572177,6.8791667 4.8825469,4.8825469 0 0 0 15.551506,6.4357829 L 14.30197,9.8092204 c -0.26655,0.7162256 -0.726095,1.0743526 -1.379244,1.0743526 -0.122084,0 -0.230963,-0.01014 -0.326595,-0.03049 -0.09563,-0.01831 -0.161813,-0.03646 -0.198438,-0.05478 l 0.182935,-0.635103 c 0.174987,0.04476 0.329762,0.0613 0.464054,0.04909 0.134293,-0.01221 0.253313,-0.07251 0.357084,-0.180351 0.105807,-0.1058063 0.202412,-0.2776673 0.289905,-0.515731 L 13.82603,9.1498291 12.092285,4.4374552 h 0.781348 l 1.294495,3.7356893 h 0.04858 l 1.043347,-3.0122192 a 4.8825469,4.8825469 0 0 0 -4.570264,-3.164148 z m 4.570264,3.164148 a 4.8825469,4.8825469 0 0 1 0.291455,1.2748576 l 0.740523,-1.9983277 h -0.781347 z m 8.992216,-0.7844482 c -0.30521,0 -0.566732,0.069927 -0.784448,0.210323 -0.217717,0.1383619 -0.375689,0.3331548 -0.473356,0.583427 h -0.06098 V 4.4374552 H 22.23792 v 4.688086 h 0.719852 V 6.1954875 c 0,-0.2299248 0.04909,-0.4322111 0.146761,-0.6071981 0.0997,-0.1770218 0.22993,-0.3157766 0.390674,-0.4154785 0.162779,-0.099702 0.337837,-0.1493449 0.525033,-0.1493449 0.272654,0 0.495224,0.0822 0.668176,0.2470133 0.172952,0.1627787 0.259416,0.3778551 0.259416,0.6444051 v 3.2106568 h 0.732772 V 6.0735311 c 0,-0.3031752 0.09021,-0.5534895 0.271301,-0.7508586 0.181091,-0.1994038 0.436735,-0.2992065 0.766361,-0.2992065 0.256377,0 0.478946,0.07419 0.668177,0.2227254 0.18923,0.1485355 0.28422,0.3956522 0.28422,0.7415568 v 3.137793 h 0.719853 v -3.137793 c 0,-0.5514126 -0.132909,-0.9570509 -0.399459,-1.2174967 -0.26655,-0.2624806 -0.609723,-0.3937744 -1.028878,-0.3937744 -0.335731,0 -0.623415,0.072058 -0.863513,0.2165242 -0.240099,0.1424313 -0.420486,0.3350925 -0.540536,0.5772258 h -0.04857 C 25.393575,4.9199549 25.231856,4.725162 25.024313,4.5868001 24.818805,4.4464036 24.561546,4.3764771 24.252267,4.3764771 Z m 7.349422,0 c -0.423224,0 -0.793625,0.1035493 -1.111043,0.3110921 -0.315384,0.205508 -0.561435,0.4926427 -0.738456,0.8609293 -0.174987,0.3662519 -0.262517,0.789493 -0.262517,1.26969 0,0.4801969 0.08753,0.9013063 0.262517,1.2634887 0.177021,0.3601477 0.427885,0.6408873 0.753442,0.8423259 0.327592,0.1994038 0.71721,0.2992065 1.168921,0.2992065 0.476127,0 0.879085,-0.1088786 1.208712,-0.326595 0.329626,-0.2177164 0.549515,-0.5037853 0.659391,-0.8578288 L 32.846574,7.8434489 c -0.09156,0.2441679 -0.238877,0.4272365 -0.44235,0.5493205 -0.203473,0.1220839 -0.446843,0.1834513 -0.729671,0.1834513 -0.423224,0 -0.769078,-0.1334256 -1.037663,-0.3999756 -0.26655,-0.26655 -0.407985,-0.6502899 -0.424263,-1.1508341 h 3.403409 V 6.72052 c 0,-0.4374675 -0.05817,-0.8057364 -0.174149,-1.1048421 C 33.325907,5.3165722 33.170066,5.0763996 32.974732,4.8953084 32.779398,4.7121825 32.562706,4.5798227 32.324642,4.4984334 32.086579,4.4170441 31.845857,4.3764771 31.601689,4.3764771 Z m -14.357263,0.060978 v 2.9786296 c 0,0.5982114 0.142501,1.0428019 0.427364,1.3337687 0.284863,0.2909668 0.646736,0.4366659 1.086239,0.4366659 0.354043,0 0.647056,-0.0822 0.879016,-0.2470134 0.231959,-0.1668481 0.403271,-0.3696511 0.513147,-0.6077148 h 0.04858 v 0.79375 h 0.720369 v -4.688086 h -0.720369 v 2.7714071 c 0,0.2930015 -0.06405,0.5342399 -0.192237,0.7234701 -0.126153,0.1892301 -0.282543,0.3295999 -0.469738,0.4211629 -0.185161,0.091563 -0.367681,0.1369425 -0.546737,0.1369425 -0.299106,0 -0.545157,-0.1014176 -0.738456,-0.3048909 C 18.060335,7.9820736 17.964795,7.7093441 17.964795,7.367509 V 4.4374552 Z M 31.601689,5.023466 c 0.390669,0 0.701834,0.1312939 0.933793,0.3937744 0.23196,0.2604458 0.347783,0.5892134 0.347783,0.9859863 h -2.670638 c 0.01628,-0.2421332 0.08246,-0.4684173 0.198437,-0.6779948 0.11598,-0.2116122 0.275018,-0.3813414 0.476457,-0.5095296 C 31.088959,5.0875141 31.327,5.023466 31.601689,5.023466 Z" />
  </g>
</svg>
