<?xml version="1.0" encoding="UTF-8" standalone="no"?>
<!-- Created with Inkscape (http://www.inkscape.org/) -->

<svg
   width="64"
   height="64"
   viewBox="0 0 16.933333 16.933333"
   version="1.1"
   id="svg5"
   inkscape:version="1.2.2 (b0a8486541, 2022-12-01)"
   sodipodi:docname="sticky_read_locked.svg"
   xml:space="preserve"
   xmlns:inkscape="http://www.inkscape.org/namespaces/inkscape"
   xmlns:sodipodi="http://sodipodi.sourceforge.net/DTD/sodipodi-0.dtd"
   xmlns="http://www.w3.org/2000/svg"
   xmlns:svg="http://www.w3.org/2000/svg"><sodipodi:namedview
     id="namedview7"
     pagecolor="#ffffff"
     bordercolor="#000000"
     borderopacity="0.25"
     inkscape:showpageshadow="2"
     inkscape:pageopacity="0"
     inkscape:pagecheckerboard="true"
     inkscape:deskcolor="#d1d1d1"
     inkscape:document-units="mm"
     showgrid="false"
     inkscape:zoom="6.2074635"
     inkscape:cx="43.254382"
     inkscape:cy="34.232984"
     inkscape:window-width="2320"
     inkscape:window-height="814"
     inkscape:window-x="2040"
     inkscape:window-y="146"
     inkscape:window-maximized="1"
     inkscape:current-layer="layer1" /><defs
     id="defs2"><filter
       inkscape:label="Silk Carpet"
       inkscape:menu="Textures"
       inkscape:menu-tooltip="Silk carpet texture, horizontal stripes"
       style="color-interpolation-filters:sRGB;"
       id="filter4271"
       height="1.3"
       width="1.3"
       y="-0.15"
       x="-0.15"><feTurbulence
         baseFrequency="0.1"
         seed="50"
         numOctaves="5"
         result="result1"
         type="fractalNoise"
         id="feTurbulence4273" /><feGaussianBlur
         stdDeviation="4"
         result="result7"
         id="feGaussianBlur4275" /><feDisplacementMap
         result="result5"
         in="SourceGraphic"
         scale="20"
         xChannelSelector="G"
         in2="result7"
         id="feDisplacementMap4277" /><feComposite
         result="result2"
         operator="in"
         in2="result1"
         in="result5"
         id="feComposite4279" /><feGaussianBlur
         stdDeviation="1"
         result="result6"
         id="feGaussianBlur4281" /><feSpecularLighting
         surfaceScale="-3"
         result="result4"
         specularConstant="3.5"
         specularExponent="35"
         in="result6"
         id="feSpecularLighting4283"><feDistantLight
           elevation="45"
           azimuth="225"
           id="feDistantLight4285" /></feSpecularLighting><feComposite
         k1="1.7"
         k3="0.7"
         in2="result2"
         in="result4"
         operator="arithmetic"
         result="result91"
         id="feComposite4287"
         k2="0"
         k4="0" /><feBlend
         result="fbSourceGraphic"
         mode="multiply"
         in2="result91"
         id="feBlend4289" /><feComposite
         in2="fbSourceGraphic"
         in="fbSourceGraphic"
         result="result2"
         operator="arithmetic"
         id="feComposite4291"
         k1="0"
         k2="0"
         k3="0"
         k4="0" /><feComposite
         in="result2"
         result="result4"
         operator="arithmetic"
         k2="2"
         k3="2"
         in2="fbSourceGraphic"
         id="feComposite4293"
         k1="0"
         k4="0" /><feBlend
         mode="screen"
         in="result4"
         in2="result4"
         id="feBlend4295"
         result="fbSourceGraphic" /><feColorMatrix
         result="fbSourceGraphicAlpha"
         in="fbSourceGraphic"
         values="0 0 0 -1 0 0 0 0 -1 0 0 0 0 -1 0 0 0 0 1 0"
         id="feColorMatrix4329" /><feTurbulence
         id="feTurbulence4331"
         type="turbulence"
         numOctaves="2"
         baseFrequency="0.01 0.11"
         seed="10"
         in="fbSourceGraphic" /><feColorMatrix
         id="feColorMatrix4333"
         result="result5"
         values="1 0 0 0 0 0 1 0 0 0 0 0 1 0 0 0 0 0 1.3 0 " /><feComposite
         id="feComposite4335"
         in2="result5"
         in="fbSourceGraphic"
         operator="out" /><feMorphology
         id="feMorphology4337"
         operator="dilate"
         radius="1.3"
         result="result3" /><feTurbulence
         id="feTurbulence4339"
         numOctaves="3"
         baseFrequency="0.08 0.05"
         type="fractalNoise"
         seed="7"
         result="result6" /><feGaussianBlur
         id="feGaussianBlur4341"
         stdDeviation="0.5"
         result="result7" /><feDisplacementMap
         id="feDisplacementMap4343"
         in2="result7"
         in="result3"
         xChannelSelector="R"
         yChannelSelector="G"
         scale="3"
         result="result4" /><feComposite
         id="feComposite4345"
         in2="result4"
         in="result4"
         k1="1"
         result="result2"
         operator="arithmetic"
         k2="1"
         k3="0"
         k4="0" /><feBlend
         id="feBlend4347"
         in2="result4"
         mode="normal"
         in="result2" /></filter><filter
       style="color-interpolation-filters:sRGB;"
       inkscape:label="Lighting"
       id="filter4412"><feComponentTransfer
         in="blur"
         result="component"
         id="feComponentTransfer4414"><feFuncR
           type="gamma"
           amplitude="5.05"
           exponent="0.989583"
           offset="0"
           id="feFuncR4416" /><feFuncG
           type="gamma"
           amplitude="5.05"
           exponent="0.989583"
           offset="0"
           id="feFuncG4418" /><feFuncB
           type="gamma"
           amplitude="5.05"
           exponent="0.989583"
           offset="0"
           id="feFuncB4420" /></feComponentTransfer></filter></defs><g
     inkscape:label="Layer 1"
     inkscape:groupmode="layer"
     id="layer1"><path
       id="path113"
       style="fill:#ffffff;stroke-width:0.264583;fill-opacity:1"
       d="m 6.5288006,2.3016681 a 6.3499999,6.3499999 0 0 0 -4.2271321,5.9799968 6.3499999,6.3499999 0 0 0 6.35,6.3500001 6.3499999,6.3499999 0 0 0 5.9799965,-4.227132 5.8208332,5.8208332 0 0 1 -3.334163,1.052132 A 5.8208332,5.8208332 0 0 1 5.4766685,5.6358315 5.8208332,5.8208332 0 0 1 6.5288006,2.3016681 Z" /><g
       style="fill:#ffffff;fill-opacity:1;enable-background:new"
       id="g4914"
       transform="matrix(0.00222482,0.00222482,-0.00222482,0.00222482,12.911217,1.1369211)"><path
         style="fill:#ffffff;fill-opacity:1"
         d="m 869.23537,1648.9516 -16.44054,-79.5748 0.0165,-326.7161 c 0.0132,-261.42677 -0.0586,-326.81799 -0.35949,-327.22611 -0.3531,-0.47892 -10.93529,-0.51456 -173.24975,-0.58383 l -172.87364,-0.0738 114.26506,-167.33019 c 62.84575,-92.03161 114.34581,-167.63159 114.44457,-167.99996 0.30018,-1.11993 0.21519,-271.90836 -0.0856,-272.69946 -0.19725,-0.51879 -1.76235,-1.54023 -5.625,-3.67104 -53.85457,-29.70838 -95.18715,-64.76445 -119.30243,-101.186 -24.17403,-36.51021 -32.2184,-74.49339 -24.15723,-114.06314 2.74683,-13.48332 8.31609,-29.65984 14.35287,-41.6895 l 1.51089,-3.0108 285.03348,0.0752 285.03344,0.0752 1.3325,3 c 14.0781,31.69662 18.7044,63.00705 13.7194,92.84997 -6.9133,41.38594 -31.4562,80.09425 -73.9246,116.59146 -18.7857,16.1444 -43.7385,33.2019 -69.5027,47.51138 -4.6874,2.60334 -6.7025,3.87993 -6.821,4.32105 -0.2269,0.84507 -0.216,271.04718 0.011,271.8939 0.099,0.36732 51.5989,75.9673 114.4454,167.99996 l 114.2664,167.33208 -172.8745,0.0738 c -162.3152,0.0693 -172.89746,0.10491 -173.25056,0.58383 -0.30093,0.40812 -0.37278,65.79934 -0.35949,327.2262 l 0.0165,326.7161 -16.44054,79.5748 c -9.04227,43.7661 -16.508,79.5747 -16.5905,79.5747 -0.0825,0 -7.54824,-35.8086 -16.59051,-79.5747 z"
         id="path4198"
         inkscape:connector-curvature="0" /></g><path
       d="M 10.615336,4.5807772 V 4.0356093 c 0,-0.6012111 -0.489125,-1.0903356 -1.0903359,-1.0903356 -0.6012111,0 -1.0903357,0.4891245 -1.0903357,1.0903356 V 4.5807772 H 8.2347695 V 6.5797261 H 10.815231 V 4.5807772 Z M 8.7254206,4.0356093 c 0,-0.4408953 0.3586841,-0.7995794 0.7995795,-0.7995794 0.4408954,0 0.7995799,0.3586841 0.7995799,0.7995794 V 4.5807772 H 8.7254206 Z"
       id="path8743"
       style="fill:#ffffff;fill-opacity:1;stroke-width:0.0363445" /></g></svg>
