<?xml version="1.0" encoding="UTF-8" standalone="no"?>
<!-- Created with Inkscape (http://www.inkscape.org/) -->

<svg
   width="64"
   height="64"
   viewBox="0 0 16.933333 16.933333"
   version="1.1"
   id="svg5"
   inkscape:version="1.2.2 (b0a8486541, 2022-12-01)"
   sodipodi:docname="topic_read_hot_mine.svg"
   xml:space="preserve"
   xmlns:inkscape="http://www.inkscape.org/namespaces/inkscape"
   xmlns:sodipodi="http://sodipodi.sourceforge.net/DTD/sodipodi-0.dtd"
   xmlns="http://www.w3.org/2000/svg"
   xmlns:svg="http://www.w3.org/2000/svg"><sodipodi:namedview
     id="namedview7"
     pagecolor="#ffffff"
     bordercolor="#000000"
     borderopacity="0.25"
     inkscape:showpageshadow="2"
     inkscape:pageopacity="0"
     inkscape:pagecheckerboard="true"
     inkscape:deskcolor="#d1d1d1"
     inkscape:document-units="mm"
     showgrid="false"
     inkscape:zoom="6.2074635"
     inkscape:cx="28.755707"
     inkscape:cy="36.488334"
     inkscape:window-width="2320"
     inkscape:window-height="814"
     inkscape:window-x="2040"
     inkscape:window-y="146"
     inkscape:window-maximized="1"
     inkscape:current-layer="layer1" /><defs
     id="defs2" /><g
     inkscape:label="Layer 1"
     inkscape:groupmode="layer"
     id="layer1"><path
       id="path113"
       style="fill:#ffffff;stroke-width:0.264583;fill-opacity:1"
       d="m 6.5288006,2.3016681 a 6.3499999,6.3499999 0 0 0 -4.2271321,5.9799968 6.3499999,6.3499999 0 0 0 6.35,6.3500001 6.3499999,6.3499999 0 0 0 5.9799965,-4.227132 5.8208332,5.8208332 0 0 1 -3.334163,1.052132 A 5.8208332,5.8208332 0 0 1 5.4766685,5.6358315 5.8208332,5.8208332 0 0 1 6.5288006,2.3016681 Z" /><g
       aria-label="!!!"
       id="text21945"
       style="font-size:5.82083px;font-family:Inter;-inkscape-font-specification:Inter;text-align:center;text-anchor:middle;fill:#ffffff;stroke-width:0.264583;fill-opacity:1"
       transform="translate(0.32265916,0.10830111)"><path
         d="m 10.508717,2.520997 -0.04134,3.0427065 H 9.9878189 L 9.9464778,2.520997 Z m -0.28112,4.2664037 q -0.152962,0 -0.2625157,-0.109554 -0.109554,-0.109554 -0.109554,-0.2625161 0,-0.1529622 0.109554,-0.2625161 0.1095537,-0.109554 0.2625157,-0.109554 0.152963,0 0.262517,0.109554 0.109554,0.1095539 0.109554,0.2625161 0,0.1529621 -0.109554,0.2625161 -0.109554,0.109554 -0.262517,0.109554 z"
         id="path22057"
         style="fill:#ffffff;fill-opacity:1" /><path
         d="m 12.129294,2.520997 -0.04134,3.0427065 H 11.608396 L 11.567055,2.520997 Z m -0.28112,4.2664037 q -0.152962,0 -0.262516,-0.109554 -0.109554,-0.109554 -0.109554,-0.2625161 0,-0.1529622 0.109554,-0.2625161 0.109554,-0.109554 0.262516,-0.109554 0.152963,0 0.262517,0.109554 0.109554,0.1095539 0.109554,0.2625161 0,0.1529621 -0.109554,0.2625161 -0.109554,0.109554 -0.262517,0.109554 z"
         id="path22059"
         style="fill:#ffffff;fill-opacity:1" /><path
         d="M 13.749871,2.520997 13.70853,5.5637035 H 13.228973 L 13.187632,2.520997 Z m -0.28112,4.2664037 q -0.152962,0 -0.262516,-0.109554 -0.109554,-0.109554 -0.109554,-0.2625161 0,-0.1529622 0.109554,-0.2625161 0.109554,-0.109554 0.262516,-0.109554 0.152963,0 0.262517,0.109554 0.109553,0.1095539 0.109553,0.2625161 0,0.1529621 -0.109553,0.2625161 -0.109554,0.109554 -0.262517,0.109554 z"
         id="path22061"
         style="fill:#ffffff;fill-opacity:1" /></g><circle
       style="fill:#ffffff;fill-opacity:1;stroke-width:0.264583"
       id="path27362"
       cx="3.1749995"
       cy="13.758333"
       r="0.5" /></g></svg>
