<?xml version="1.0" encoding="UTF-8" standalone="no"?>
<!-- Created with Inkscape (http://www.inkscape.org/) -->

<svg
   width="64"
   height="64"
   viewBox="0 0 16.933333 16.933333"
   version="1.1"
   id="svg5"
   inkscape:version="1.2.2 (b0a8486541, 2022-12-01)"
   sodipodi:docname="topic_unread_locked_mine.svg"
   xml:space="preserve"
   xmlns:inkscape="http://www.inkscape.org/namespaces/inkscape"
   xmlns:sodipodi="http://sodipodi.sourceforge.net/DTD/sodipodi-0.dtd"
   xmlns="http://www.w3.org/2000/svg"
   xmlns:svg="http://www.w3.org/2000/svg"><sodipodi:namedview
     id="namedview7"
     pagecolor="#ffffff"
     bordercolor="#000000"
     borderopacity="0.25"
     inkscape:showpageshadow="2"
     inkscape:pageopacity="0"
     inkscape:pagecheckerboard="true"
     inkscape:deskcolor="#d1d1d1"
     inkscape:document-units="mm"
     showgrid="false"
     inkscape:zoom="6.2074635"
     inkscape:cx="26.339261"
     inkscape:cy="37.293816"
     inkscape:window-width="2320"
     inkscape:window-height="814"
     inkscape:window-x="2040"
     inkscape:window-y="146"
     inkscape:window-maximized="1"
     inkscape:current-layer="layer1" /><defs
     id="defs2" /><g
     inkscape:label="Layer 1"
     inkscape:groupmode="layer"
     id="layer1"><path
       id="path113"
       style="fill:#c49fac;stroke-width:0.264583;fill-opacity:1"
       d="m 6.5288006,2.3016681 a 6.3499999,6.3499999 0 0 0 -4.2271321,5.9799968 6.3499999,6.3499999 0 0 0 6.35,6.3500001 6.3499999,6.3499999 0 0 0 5.9799965,-4.227132 5.8208332,5.8208332 0 0 1 -3.334163,1.052132 A 5.8208332,5.8208332 0 0 1 5.4766685,5.6358315 5.8208332,5.8208332 0 0 1 6.5288006,2.3016681 Z" /><path
       d="M 13.776027,5.0241342 V 4.2215366 c 0,-0.8851048 -0.720091,-1.6051954 -1.605195,-1.6051954 -0.885105,0 -1.605196,0.7200906 -1.605196,1.6051954 V 5.0241342 H 10.27135 v 2.9428579 h 3.798965 V 5.0241342 Z M 10.993689,4.2215366 c 0,-0.6490875 0.528054,-1.1771435 1.177143,-1.1771435 0.649086,0 1.177143,0.528056 1.177143,1.1771435 v 0.8025976 h -2.354286 z"
       id="path12762"
       style="fill:#c49fac;fill-opacity:1;stroke-width:0.0535064" /><circle
       style="fill:#c49fac;fill-opacity:1;stroke-width:0.264583"
       id="path27362"
       cx="3.1749995"
       cy="13.758333"
       r="0.5" /></g></svg>
